# xmcd CD database file generated by GCD 2.5
# 
# Track frame offsets:
#       183
#       14050
#       26448
#       40398
#       67128
#       82533
#       93813
#       106725
#       117348
#       134078
#       151868
# 
# Disc length: 2248 seconds
# 
# Revision: 3
# Processed by: cddbd v1.4b41PL1 Copyright (c) Steve Scherf et al.
# Submitted via: GCD 2.5
# 
DISCID=8508c60b
DTITLE=Mahalia Jackson - Walk over God's Heaven - Go tell it on the mountain
DYEAR=1900
DGENRE=
TTITLE0=Walk over God's Heaven
TTITLE1=Didn't it rain
TTITLE2=Go tell it on the mountain
TTITLE3=In the upper room Pt. 1-2
TTITLE4=I'm on my way
TTITLE5=Joshua fit the battle of Jericho
TTITLE6=An evening prayer
TTITLE7=Run all the way
TTITLE8=The lord's prayer
TTITLE9=A city called Heaven
TTITLE10=My god is real (yes, God is real)
EXTD=
EXTT0=
EXTT1=
EXTT2=
EXTT3=
EXTT4=
EXTT5=
EXTT6=
EXTT7=
EXTT8=
EXTT9=
EXTT10=
PLAYORDER=
